<?xml version="1.0" encoding="utf-8"?>
<!-- Generator: Adobe Illustrator 20.1.0, SVG Export Plug-In . SVG Version: 6.00 Build 0)  -->
<svg version="1.1" id="Layer_1" xmlns="http://www.w3.org/2000/svg" xmlns:xlink="http://www.w3.org/1999/xlink" x="0px" y="0px"
	 viewBox="0 0 2048 958.8" style="enable-background:new 0 0 2048 958.8;" xml:space="preserve">
<style type="text/css">
	.st0{fill:#144D80;}
	.st1{fill:#2B89B9;}
</style>
<g>
	<g>
		<g>
			<path class="st0" d="M292.2,117c0,0,248.2-11.7,240,263.5c-12.1,231.2-238.9,225.7-238.9,225.7H108.4V117H292.2z M176.1,176.7
				v370.3h124.1c0,0,152.4,4.2,160.5-170.9c5.5-208.3-161.2-199.5-161.2-199.5H176.1z"/>
			<polygon class="st0" points="539.8,263.1 662.9,591 601.3,758.2 668.5,758.2 863,263.1 794.4,263.1 696.7,518.7 611.2,263.1 			
				"/>
			<path class="st0" d="M881.8,263.1v343h62.9v-250c0,0,23.5-45.1,93.9-45.1s88.3,47.9,88.3,83.6s0,211.5,0,211.5h63.9V400.3
				c0,0,3.8-144.3-132.5-144.3c-84.2,0-119.9,44.1-119.9,44.1l-7.8-37H881.8z"/>
		</g>
		<polygon class="st1" points="1522.5,176.5 1522.5,117 1223.9,117 1223.9,606.1 1527.6,605.9 1527.6,546.4 1291.8,546.4 
			1291.7,380.5 1464.9,380.3 1464.9,320.8 1291.7,320.8 1291.6,176.6 		"/>
		<path class="st1" d="M1791.1,117v182.8c0.2,0.7,0.5,1.4,0.7,2.1c-27.6-28.9-64.4-46.3-104.9-46.3c-85.4,0-154.6,77.1-154.6,176.9
			s69.2,180.7,154.6,180.7c39.9,0,76.3-17.7,103.8-46.8l7,39.7h56.4V117H1791.1z M1696.7,559.9c-56.2,0-101.7-47.1-101.7-124.9
			c0-82.8,45.5-124.9,101.7-124.9c56.2,0,101.7,55.9,101.7,124.9C1798.4,510.7,1752.9,559.9,1696.7,559.9z"/>
		<g>
			<path class="st1" d="M1913.6,117.3c14.4,0,26,12.3,26,27.6c0,15.3-11.6,27.6-26,27.6c-14.4,0-26-12.3-26-27.6
				C1887.6,129.6,1899.2,117.3,1913.6,117.3z M1913.6,167.6c11.9,0,21-9.7,21-22.7c0-13-9.1-22.7-21-22.7c-11.9,0-21,9.7-21,22.7
				C1892.6,157.9,1901.7,167.6,1913.6,167.6z"/>
			<g>
				<path class="st1" d="M1907.2,157.1h-3.4v-25.5h10.4c5.2,0,8.7,3,8.7,7.6c0,3.6-2.1,6.3-5.5,7.3l6.3,10.6h-4l-5.8-10.1h-6.7
					V157.1z M1907.2,144.2h6.7c3.5,0,5.5-1.7,5.5-4.9c0-3.1-2.1-4.9-5.6-4.9h-6.5V144.2z"/>
			</g>
		</g>
	</g>
	<g>
		<path class="st0" d="M874.3,782.9c6.6,3.8,16.6,7.1,27.1,7.1c13.1,0,20.4-6.1,20.4-15.3c0-8.5-5.6-13.5-19.9-18.6
			c-18.4-6.6-30.2-16.4-30.2-32.5c0-18.3,15.3-32.2,39.5-32.2c12.1,0,21.1,2.7,26.9,5.6l-5,16.4c-4-2.2-11.8-5.3-22.3-5.3
			c-13,0-18.6,7-18.6,13.5c0,8.6,6.5,12.6,21.4,18.4c19.4,7.3,28.9,17.1,28.9,33.2c0,17.9-13.6,33.5-42.5,33.5
			c-11.8,0-24.1-3.3-30.2-7L874.3,782.9z"/>
		<path class="st0" d="M1016.1,701.2v23.1h19.4v15.3h-19.4v35.7c0,9.8,2.7,14.9,10.5,14.9c3.5,0,6.1-0.5,8-1l0.3,15.6
			c-3,1.2-8.3,2-14.8,2c-7.5,0-13.8-2.5-17.6-6.6c-4.3-4.7-6.3-12-6.3-22.6v-38h-11.6v-15.3h11.6V706L1016.1,701.2z"/>
		<path class="st0" d="M1156.6,780.9c0,9.6,0.3,17.6,0.7,24.2h-17.9l-1-12.3h-0.3c-3.5,5.8-11.5,14.1-25.9,14.1
			c-14.8,0-28.2-8.8-28.2-35.2v-47.5h20.4v44c0,13.5,4.3,22.1,15.1,22.1c8.1,0,13.5-5.8,15.6-11c0.7-1.8,1.2-4,1.2-6.3v-48.8h20.4
			V780.9z"/>
		<path class="st0" d="M1286.4,687.3v95.2c0,8.3,0.3,17.3,0.7,22.8h-18.3l-0.8-12.8h-0.3c-4.8,9-14.6,14.6-26.4,14.6
			c-19.3,0-34.5-16.4-34.5-41.3c-0.2-27.1,16.8-43.2,36.2-43.2c11.1,0,19.1,4.6,22.8,10.6h0.3v-45.8H1286.4z M1266,758
			c0-1.7-0.2-3.7-0.5-5.3c-1.8-8-8.3-14.4-17.6-14.4c-13.1,0-20.4,11.6-20.4,26.7c0,14.8,7.3,25.6,20.3,25.6
			c8.3,0,15.6-5.6,17.6-14.4c0.5-1.8,0.7-3.8,0.7-6V758z"/>
		<path class="st0" d="M1354.4,724.3l14.6,43.3c1.7,5,3.3,11.1,4.5,15.8h0.5c1.3-4.6,2.8-10.6,4.3-15.9l12.6-43.2h21.9l-20.3,55.1
			c-11.1,30.2-18.6,43.7-28.2,52c-8,7.1-16.3,9.8-21.4,10.5l-4.6-17.3c3.5-0.8,7.8-2.7,12-5.6c3.8-2.5,8.3-7.3,11.1-12.8
			c0.8-1.5,1.3-2.7,1.3-3.7c0-0.8-0.2-2-1.2-4l-29.6-74.2H1354.4z"/>
		<path class="st0" d="M1548.7,773.5l-9.6,31.7h-21.1l35.9-111.9h26.1l36.4,111.9h-21.9l-10.1-31.7H1548.7z M1580.7,758l-8.8-27.6
			c-2.2-6.8-4-14.4-5.6-20.9h-0.3c-1.7,6.5-3.3,14.3-5.3,20.9L1552,758H1580.7z"/>
		<path class="st0" d="M1663.4,751.2c0-10.6-0.3-19.3-0.7-26.9h17.9l1,12.5h0.3c6-9.1,15.4-14.3,27.7-14.3c18.6,0,34,15.9,34,41.2
			c0,29.2-18.4,43.3-36.9,43.3c-10.1,0-18.6-4.3-22.8-10.8h-0.3v41.8h-20.4V751.2z M1683.8,771.3c0,2,0.2,3.8,0.7,5.6
			c2,8.3,9.3,14.3,17.9,14.3c13,0,20.6-10.8,20.6-26.7c0-14.3-7-25.9-20.1-25.9c-8.5,0-16.3,6.1-18.3,15.1c-0.5,1.7-0.8,3.5-0.8,5.1
			V771.3z"/>
		<path class="st0" d="M1793.8,751.2c0-10.6-0.3-19.3-0.7-26.9h17.9l1,12.5h0.3c6-9.1,15.4-14.3,27.7-14.3c18.6,0,34,15.9,34,41.2
			c0,29.2-18.4,43.3-36.9,43.3c-10.1,0-18.6-4.3-22.8-10.8h-0.3v41.8h-20.4V751.2z M1814.2,771.3c0,2,0.2,3.8,0.7,5.6
			c2,8.3,9.3,14.3,17.9,14.3c13,0,20.6-10.8,20.6-26.7c0-14.3-7-25.9-20.1-25.9c-8.5,0-16.3,6.1-18.3,15.1c-0.5,1.7-0.8,3.5-0.8,5.1
			V771.3z"/>
	</g>
</g>
</svg>
